<?xml version="1.0" encoding="UTF-8" standalone="no"?>
<!-- Created with Inkscape (http://www.inkscape.org/) -->

<svg
   xmlns:dc="http://purl.org/dc/elements/1.1/"
   xmlns:cc="http://creativecommons.org/ns#"
   xmlns:rdf="http://www.w3.org/1999/02/22-rdf-syntax-ns#"
   xmlns:svg="http://www.w3.org/2000/svg"
   xmlns="http://www.w3.org/2000/svg"
   xmlns:sodipodi="http://sodipodi.sourceforge.net/DTD/sodipodi-0.dtd"
   xmlns:inkscape="http://www.inkscape.org/namespaces/inkscape"
   width="815mm"
   height="120mm"
   viewBox="0 0 815 120"
   version="1.1"
   id="svg8"
   inkscape:version="0.92.2 (5c3e80d, 2017-08-06)"
   sodipodi:docname="banner_v4.svg"
   inkscape:export-filename="D:\XAMPP\htdocs\img\logo_big.png"
   inkscape:export-xdpi="96"
   inkscape:export-ydpi="96">
  <defs
     id="defs2" />
  <sodipodi:namedview
     id="base"
     pagecolor="#ffffff"
     bordercolor="#666666"
     borderopacity="1.0"
     inkscape:pageopacity="0.0"
     inkscape:pageshadow="2"
     inkscape:zoom="0.26519976"
     inkscape:cx="443.19279"
     inkscape:cy="-642.91167"
     inkscape:document-units="mm"
     inkscape:current-layer="layer1"
     showgrid="false"
     inkscape:measure-start="0,0"
     inkscape:measure-end="0,0"
     inkscape:snap-others="false"
     inkscape:object-nodes="false"
     inkscape:snap-nodes="false"
     inkscape:window-width="1920"
     inkscape:window-height="1018"
     inkscape:window-x="-8"
     inkscape:window-y="-8"
     inkscape:window-maximized="1"
     inkscape:snap-page="true" />
  <metadata
     id="metadata5">
    <rdf:RDF>
      <cc:Work
         rdf:about="">
        <dc:format>image/svg+xml</dc:format>
        <dc:type
           rdf:resource="http://purl.org/dc/dcmitype/StillImage" />
        <dc:title></dc:title>
      </cc:Work>
    </rdf:RDF>
  </metadata>
  <g
     inkscape:label="圖層 1"
     inkscape:groupmode="layer"
     id="layer1"
     transform="translate(0,-177)">
    <path
       id="path850"
       style="fill:#000000;stroke:none;stroke-width:0.03476237"
       d="m 160.70727,198.07433 -0.10093,16.96255 -0.0673,16.96254 -4.52914,0.14363 c -0.34794,0.0573 3.36816,0.13748 6.47588,0.18585 0.79584,0.0123 1.55183,0.0227 2.18938,0.0299 l 5.61542,0.0359 -4.77483,-0.35941 h -4.64027 l -0.10094,-16.99845 z m 9.58333,34.3204 -0.0673,14.26717 c -0.10086,14.26724 -0.10084,14.30329 -0.87422,15.63296 -1.10963,1.94066 -2.08851,1.54054 -4.10606,-1.01104 l -0.66875,-1.28901 v -8.91232 c 0,-7.47468 0.0669,-9.02065 0.50415,-9.48784 0.26901,-0.28749 0.50466,-0.61067 0.50466,-0.71848 0,-0.10781 -1.68127,-0.21578 -3.76605,-0.21578 -3.5643,0 -3.69892,0.036 -3.19461,0.647 0.50438,0.61094 0.33646,1.04233 -2.45446,6.54078 -1.68127,3.23438 -3.09368,5.92964 -3.12732,6.00151 -0.0673,0.0359 -1.44602,-2.55164 -3.06004,-5.82197 -2.45459,-4.92346 -2.89164,-6.03739 -2.55539,-6.46863 0.23539,-0.32345 0.36954,-0.611 0.26865,-0.71882 -0.0673,-0.0718 -1.64749,-0.25158 -3.46325,-0.3594 -1.84941,-0.14374 -3.69899,-0.39547 -4.10248,-0.6111 -1.54677,-0.82657 -6.72509,0.28752 -7.53209,1.58126 -0.10088,0.17969 -0.60488,0.14385 -1.17651,-0.10771 -1.07602,-0.46719 -15.93839,-0.9343 -15.93839,-0.50305 0,0.10782 0.23514,0.4669 0.50413,0.75439 0.40352,0.46719 0.50466,1.94067 0.50466,8.62507 0,7.40315 -0.13489,9.59676 -0.74016,10.92646 -1.54678,3.16252 -2.69351,2.07072 -4.37265,0.0974 l -0.93998,-1.10482 v -8.98448 c 0,-7.51076 0.067,-9.09246 0.50414,-9.55965 0.269,-0.28749 0.50466,-0.61067 0.50466,-0.71848 0,-0.10781 -1.68128,-0.21578 -3.76604,-0.21578 -3.56432,0 -3.699,0.036 -3.19462,0.647 0.53802,0.61094 0.37013,1.00622 -2.38716,6.32501 -1.61403,3.12657 -3.060151,5.71389 -3.261912,5.74982 -0.168126,0 -1.580544,-2.51552 -3.12732,-5.6421 -2.118409,-4.24064 -2.757093,-5.78611 -2.454457,-6.10956 0.672499,-0.71876 0.40346,-0.97017 -1.008801,-0.97017 h -2.19091 l 2.795986,-2.30006 c 1.109644,-1.25782 2.421062,-3.12635 2.891824,-4.20448 1.681274,-3.55782 0.975315,-7.65466 -1.580229,-9.12811 -0.672529,-0.39523 -1.244402,-1.04218 -1.378901,-1.58125 -0.100873,-0.46718 -0.975145,-2.04849 -1.916661,-3.48599 -1.244145,-1.97657 -2.050847,-2.83918 -3.194109,-3.41419 l -1.51345,-0.79062 -1.546592,0.75471 c -0.874264,0.43126 -2.488181,1.14997 -3.597826,1.61716 -1.109633,0.50313 -3.799815,1.72503 -5.951859,2.7313 l -3.967903,1.79668 -2.689965,-1.90475 c -6.35522,-4.56409 -14.459114,-6.25295 -22.058478,-4.56388 -6.388858,1.40156 -13.853397,6.79225 -17.417702,12.54229 -3.83331,6.25314 -5.010348,10.13421 -5.010348,16.78267 0,4.06096 0.100857,5.10312 0.907868,7.90626 3.328937,11.85943 10.356674,19.29876 20.88146,22.13784 4.102323,1.11408 9.9193,1.11408 13.786241,0 7.700235,-2.19217 13.719735,-7.15171 18.023794,-14.80644 2.152034,-3.88126 2.824878,-4.70096 3.497395,-9.91192 0.605263,-4.7079 -0.03393,-9.96152 -0.571931,-12.2256 -0.369882,-1.58125 -0.336521,-1.68906 0.43686,-2.37187 1.109644,-0.97032 6.355161,-4.24069 9.381467,-5.85788 3.463434,-1.83283 3.765893,-2.15619 3.496894,-3.62963 -0.26892,-1.43751 0.23551,-1.54543 1.177018,-0.25168 1.378652,1.90469 0.571713,6.21738 -1.748447,9.23615 -0.706137,0.93437 -2.286692,2.19213 -4.068835,3.23432 -1.580407,0.97032 -2.891826,1.94048 -2.891826,2.1561 0.03373,0.25157 0.709203,0.70974 0.978212,1.21288 0.739763,1.36563 0.266129,18.15745 -0.473554,18.94807 -0.269,0.28752 -0.504658,0.611 -0.504658,0.71883 0,0.1078 1.311437,0.21577 2.925464,0.21577 2.790914,0 2.892023,-0.036 2.320387,-0.68291 -0.470753,-0.57499 -0.538264,-1.50941 -0.471009,-7.43913 l 0.100931,-6.75622 3.665118,7.25927 c 3.194417,6.3969 3.698952,7.22351 4.068832,6.64849 0.201759,-0.35936 1.983972,-3.62954 3.900622,-7.29516 l 3.49689,-6.64851 0.10094,6.79213 c 0.0673,5.92972 2.6e-4,6.86414 -0.47051,7.43913 -0.57163,0.64688 -0.4707,0.68291 1.98396,0.68291 2.18567,0 2.75679,0.14365 3.79918,0.89834 1.54677,1.11408 2.58945,1.14996 3.39647,0.0359 0.63889,-0.82656 0.74004,-0.86231 8.00308,-1.00608 6.75875,-0.14375 7.53192,-0.2158 9.07868,-0.97049 2.11833,-1.00625 3.02649,-1.94043 4.13612,-4.16856 0.80703,-1.61721 0.90789,-2.19249 0.90789,-5.57062 0,-3.41387 -0.10086,-3.95308 -0.90789,-5.60621 -0.47073,-0.97031 -1.10987,-2.01228 -1.37887,-2.22791 -0.26901,-0.25156 -1.04644,-1.02469 -0.94558,-1.42 0.60526,-2.44375 5.956,-2.06613 7.03202,0.44951 0.269,0.64688 0.40321,3.62964 0.40321,9.52341 0,7.1516 -0.10063,8.66125 -0.50414,9.12844 -0.269,0.2875 -0.50465,0.61068 -0.50465,0.71849 0,0.10779 1.31144,0.21577 2.92545,0.21577 2.79092,0 2.89203,-0.036 2.32039,-0.68291 -0.47075,-0.575 -0.53825,-1.50941 -0.471,-7.43914 l 0.10093,-6.75621 3.66512,7.25926 c 3.19442,6.3969 3.69894,7.22351 4.06884,6.64849 0.20175,-0.35936 1.88296,-3.48574 3.6651,-6.93575 1.81578,-3.45003 3.42971,-6.43288 3.59784,-6.64851 0.16805,-0.17969 0.30279,2.4799 0.30279,6.46897 0,5.78596 -0.067,6.8638 -0.57145,7.4388 -0.50437,0.61094 -0.43747,0.647 2.18532,0.647 2.58916,0 2.79118,0.0717 3.32918,0.93425 0.30263,0.50311 0.87391,1.07809 1.24379,1.22185 0.40345,0.17968 -19.469,0.32349 -44.0828,0.32349 -29.657699,0.036 -44.82296,0.14375 -44.82296,0.3953 0,0.25159 17.55243,0.35942 51.95133,0.35942 h 51.95184 l 0.0101,-0.35673 h -0.21512 -0.92163 -0.73812 -0.76514 -0.66981 -0.69225 -0.51382 -0.90379 -1.16428 -1.42934 c -0.1985,0 -0.33764,-0.0515 -0.4185,-0.1237 -1.78891,0.0468 -3.71147,-0.11146 -3.61872,-0.54758 0.0673,-0.50313 1.25092,-1.95921 1.25092,-2.4264 0,-0.7547 4.83763,-0.49837 7.79666,-0.49837 h 5.34626 l -0.0108,0.0157 c 0.0162,0.004 0.0323,0.007 0.0479,0.0105 l -0.0367,-0.0262 h 0.8049 c 0.003,-0.0457 0.008,-0.0837 0.0127,-0.0878 0.006,-0.004 0.0129,0.0271 0.0209,0.0878 h 0.77534 c 0,0 1.78223,0.17965 2.0176,0.43121 0.30263,0.32343 0.40322,-0.1439 0.40322,-2.19235 0,-2.12031 -0.1006,-2.55132 -0.43687,-2.26382 -0.269,0.25157 -2.85831,0.39527 -6.89337,0.43123 h -6.45602 v -20.73643 c 0,-18.75945 0.0672,-20.77185 0.57144,-21.3828 0.50438,-0.61093 0.47055,-0.64699 -1.34523,-0.64699 -1.7149,0 -1.91667,-0.0716 -1.91667,-0.71848 0,-2.91096 3.42984,-6.75632 7.66666,-8.62507 2.45466,-1.11406 7.29702,-0.86257 9.98705,0.46713 2.79093,1.40157 4.43827,3.19835 5.11077,5.6421 0.70614,2.47971 0.67252,7.47526 -0.0336,11.14091 -1.41227,7.33127 -1.41227,12.72176 -0.0336,14.37488 0.60524,0.71876 0.63894,1.07823 0.10091,1.07823 -0.87424,0 -2.72359,2.01239 -3.66511,4.06084 -1.44588,3.01877 -2.1519,8.33777 -1.64751,11.93153 0.47076,3.2344 2.11825,6.43257 4.43842,8.58884 l 1.78208,1.65306 h -4.80798 c -0.61909,0 -1.14848,5e-5 -1.61488,-0.003 -0.0796,0.0759 -0.22173,0.13068 -0.42665,0.13068 h -0.28497 -0.64434 -0.52657 c -0.15852,0.0503 -0.32428,0.0743 -0.49853,0.0588 h -0.21869 c -0.007,0.003 -0.017,0.002 -0.0281,0 h -0.10297 c -0.0296,0.003 -0.0595,0.004 -0.0891,0.007 -0.21529,0.0151 -0.43096,0.04 -0.6433,-0.007 h -0.70703 c -0.16983,0.04 -0.35168,0.0542 -0.53931,0.0509 0,0.0159 2e-5,0.0146 0,0.0642 7.1e-4,0.0673 0.002,0.13479 5.2e-4,0.20215 0.003,0.0114 0.004,0.023 0.007,0.0346 h 6.08134 6.38873 l 0.20186,-1.97656 0.16821,-1.97656 0.16822,1.97656 c 0.16814,2.33593 1.00847,2.80319 1.34473,0.71882 0.16811,-1.0422 0.23553,-1.0782 0.26916,-0.32351 0,0.53906 0.26876,1.15015 0.53777,1.4017 0.40351,0.35938 0.53841,0.28752 0.77381,-0.3953 l 0.30228,-0.86243 0.2355,0.82651 c 0.23538,0.79065 0.23543,0.79065 8.64183,0.79065 5.34645,0 8.37268,-0.14378 8.37268,-0.35943 0,-0.21562 -3.02624,-0.35939 -8.40632,-0.35939 h -8.40651 v -2.12052 c 0,-1.18594 -0.13468,-2.26374 -0.33643,-2.37155 -0.20177,-0.14375 -0.33593,0.46718 -0.33593,1.58124 0,1.94063 -0.23576,2.91083 -0.70651,2.91083 -0.16814,0 -0.30228,-2.01245 -0.30228,-4.42027 0,-2.44375 -0.101,-5.75016 -0.23551,-7.29548 -0.23539,-2.47969 -0.30235,-1.90464 -0.43685,4.24071 -0.1345,6.32503 -0.33672,7.94226 -0.84109,7.43913 -0.0673,-0.1078 -0.26871,-2.1202 -0.40322,-4.45616 l -0.3028,-4.31254 -0.26915,4.38434 c -0.30182,5.10315 -0.67254,5.5341 -1.98396,2.33565 -1.04238,-2.4797 -1.81536,-5.60607 -2.08436,-8.51702 -0.20175,-2.0125 -0.16823,-2.26412 0.73965,-3.48599 2.05115,-2.80301 9.34793,-6.00136 11.43271,-4.99511 1.10964,0.53906 2.45446,6.03733 2.45446,10.06236 0,2.04844 0.60553,1.58122 1.4798,-1.15004 0.60527,-1.97657 0.60439,-2.01262 -0.13457,-4.60012 -1.95029,-7.00756 -5.81736,-11.39204 -10.69306,-12.14664 -1.37865,-0.17969 -1.54683,-0.32371 -2.01759,-1.6534 -0.60527,-1.72501 -0.63892,-9.05597 -0.0673,-12.97318 0.53801,-3.59376 0.43621,-9.1644 -0.20184,-11.53622 -1.41228,-5.13909 -7.96902,-8.84049 -13.75259,-7.69048 -4.87546,0.97032 -10.05422,5.67818 -10.76037,9.81101 -0.20175,1.11407 -0.36992,1.36547 -1.04243,1.36547 -0.84064,0 -1.10934,0.53906 -0.36958,0.79063 0.30263,0.14375 0.40322,2.08458 0.40322,8.12203 z M 86.386009,218.57972 c 0.278292,0.007 0.690965,0.28775 1.589405,0.94923 1.513143,1.11406 2.891462,3.59398 3.160461,5.64242 0.201764,1.79689 0.201911,1.83294 -0.638722,1.83294 -2.421043,0 -5.98527,-6.28925 -4.606627,-8.08613 0.177588,-0.21899 0.305054,-0.34299 0.495483,-0.33846 z m -29.17314,54.89799 c -5.388787,0.92834 -8.484547,0.4286 -12.373181,-0.79658 -3.652837,-1.15087 -6.23675,-2.27744 -9.479314,-5.90032 -6.737846,-7.36966 -9.457503,-18.79667 -8.003612,-26.52574 0.421887,-2.15778 1.165547,-4.40637 2.027794,-6.3248 0.862246,-1.91841 1.100159,-1.82472 1.345238,-2.7001 0.245081,-0.87536 0.501696,-1.17853 3.899112,-4.90689 -0.01613,-0.12817 1.225946,-1.33849 3.361787,-2.93313 1.949845,-1.45578 1.770515,-1.50454 3.456625,-2.23357 1.68611,-0.72902 2.921412,-1.15089 4.932867,-1.70027 1.647613,-0.46717 3.808042,-0.70085 5.993654,-0.70086 l 1.1e-5,-1.7e-4 v 6.9e-4 2.4e-4 l 5.23e-4,4.6e-4 c 2.185612,10e-6 4.396564,0.23333 6.145061,0.70052 3.429717,0.93438 7.464717,3.05483 10.154759,5.35485 l 2.084879,1.83293 2.622679,-1.40172 c 1.412271,-0.75468 3.194493,-1.58137 3.934256,-1.83293 0.739763,-0.25156 2.219041,-0.93417 3.328677,-1.5091 2.118407,-1.15001 2.891827,-1.1142 2.891827,0.14362 0,1.3297 1.513143,4.3842 2.824532,5.74982 l 1.210655,1.25809 -0.806929,0.57486 c -0.437137,0.32342 -2.152024,1.25775 -3.76605,2.04838 -3.429795,1.68906 -6.523289,3.80962 -6.523289,4.45649 0,0.25157 0.470695,3.31934 0.840577,4.97247 1.159499,4.82635 0.333275,11.11768 -0.777524,13.77716 -1.110789,2.65949 -1.525749,3.66224 -2.558906,5.38356 -2.98692,4.85391 -4.960607,7.00975 -9.80732,10.47325 m -24.302612,-45.1719 c -0.07233,0.0582 -0.158513,0.12752 -0.18606,0.15229 -0.09665,0.0869 -0.148052,0.21126 -0.260482,0.28259 -0.03835,0.0243 0.01968,-0.13745 -0.05557,-0.11337 6.52e-4,0.34726 -0.0021,0.69441 -0.0071,1.04165 0.0017,0.0446 0.0045,0.0893 0.0071,0.13398 0.0097,0.033 0.02202,0.0693 0.04026,0.11304 0.0093,-1.7e-4 0.01724,-7e-4 0.03211,-7e-4 0.160156,0.0647 0.323747,0.12389 0.484773,0.18718 0.101976,2.3e-4 0.208246,7e-4 0.297695,0.002 0.01325,3e-5 0.02649,-4.6e-4 0.03976,-4.6e-4 -0.02981,-0.079 -0.064,-0.15455 -0.08207,-0.20779 -0.185709,-0.43574 -0.134414,-0.8706 -0.18555,-1.23415 -0.03581,-0.12608 -0.08564,-0.25048 -0.124887,-0.35612 z M 196.2492,240.30099 c 0.33624,0 0.84079,0.57489 1.21065,1.32957 1.4459,3.09064 1.44589,3.12671 -1.91665,4.95953 -1.64765,0.86249 -3.09375,1.76093 -3.22826,1.97657 -0.10088,0.17968 -0.36969,0.3594 -0.57145,0.3594 -0.53799,0 -0.0338,-3.37799 0.80694,-5.2827 0.70614,-1.61719 2.62275,-3.34237 3.69877,-3.34237 z m -131.187124,3.01987 c 1.97e-4,0.003 2.46e-4,0.004 5.22e-4,0.007 5e-5,-0.002 -3.9e-5,-0.004 0,-0.007 z m 5.22e-4,0.007 c -5.22e-4,0.0262 -0.0021,0.0538 -5.22e-4,0.0841 0.0021,-0.007 0.0021,-0.0128 0.0039,-0.0193 1.28e-4,-0.005 -6.9e-5,-0.0108 0,-0.0163 -0.0021,-0.0165 -0.0021,-0.0335 -0.0039,-0.0485 z m 55.461992,0.92695 h 4.0352 c 2.65639,0 4.43826,0.17992 5.14441,0.50338 3.53066,1.5453 4.674,8.37319 1.98393,11.75132 -1.37862,1.76095 -2.58892,2.12053 -7.12834,2.12053 h -4.03521 v -7.18781 z m -47.642909,8.92526 c 0.0021,0.003 0.0021,0.005 0.0039,0.007 5.23e-4,-0.003 5.23e-4,-0.005 0.0021,-0.007 -0.0021,-5e-5 -0.0039,-5e-5 -0.0059,0 z m -43.146409,4.29283 c -0.0096,0.0132 -0.01881,0.0257 -0.02498,0.0366 -0.0042,0.007 -0.004,0.0154 -0.004,0.0232 0.01207,-0.0115 0.02488,-0.023 0.03721,-0.0336 -6.52e-4,-0.002 -9.83e-4,-0.003 -9.83e-4,-0.005 -0.0017,-0.007 -0.0037,-0.0144 -0.0071,-0.0216 z m 153.355188,7.50188 c -0.1118,0.0166 -0.22244,0.0383 -0.33337,0.0588 0.0173,0.0195 0.0339,0.0395 0.0463,0.0614 0.004,0.007 -0.004,4e-5 -0.0158,-0.009 0.0401,0.0371 0.0755,0.0745 0.10603,0.11438 0.0682,-0.0513 0.13508,-0.12627 0.19727,-0.22611 z m -127.777889,4.66331 c 1.98e-4,0.0124 5.23e-4,0.0251 0.0021,0.0376 0.0039,-0.002 0.0089,-0.004 0.01371,-0.005 -0.0039,-0.0117 -0.01085,-0.023 -0.01529,-0.0324 z m 0.200838,1.3914 v 0 c -0.0039,0.004 -0.0079,0.01 -0.01124,0.0145 0.0059,-0.002 0.01016,-0.002 0.01628,-0.003 -5.23e-4,-0.005 -2.47e-4,-0.007 -5.23e-4,-0.0105 -0.0021,1.4e-4 -0.0039,-0.002 -0.0049,-0.002 z m -2.642044,0.0701 v 0 h -5.13e-4 c -0.0021,0.003 -0.0039,0.005 -0.0049,0.007 0.0089,3e-5 0.01795,0 0.02703,0 -0.0079,-0.003 -0.01411,-0.005 -0.0214,-0.008 z m -0.08415,0.009 c -0.0059,0.002 -0.01154,0.004 -0.01736,0.006 0.01106,0.007 0.01588,-0.005 0.01736,-0.006 z"
       inkscape:connector-curvature="0"
       sodipodi:nodetypes="ccccccccccccccccscssccccccccccscscccscsscccccscccccccccccccccscccccccccccccccsscccccccccscccccsccccscsscccccccscscccsscccccccccccsccsscccccccccscccscsscccccsccccscscccccccccccccccccccccccccssscscsssccccccccccsccccccccsccccccscccaccsscscccccccccccccsccccsccccccccccccccccccscccscsccccccccccccscccccccccccccccccccccccccccccccccccccccccccc" />
    <path
       id="path852"
       style="fill:#000000;stroke:none;stroke-width:0.03476237"
       d="m 45.670389,252.97142 c -0.400736,0.003 -0.702989,0.36609 -1.249404,1.41726 l -0.80702,1.58125 0.638889,1.68908 c 0.538015,1.40157 0.840672,1.72493 1.883071,2.04836 2.017526,0.61093 2.353839,0.46721 3.093602,-1.1859 l 0.672527,-1.50938 -0.6389,-1.65314 c -0.504391,-1.29376 -0.90792,-1.72502 -1.647682,-1.86878 -0.504383,-0.14374 -1.277803,-0.32346 -1.647683,-0.46722 -0.107177,-0.0337 -0.204922,-0.0521 -0.2974,-0.0516 z"
       inkscape:connector-curvature="0" />
    <path
       id="path854"
       style="fill:#000000;stroke:none;stroke-width:0.03476237"
       d="m 67.484412,255.87612 c -0.520254,-0.003 -0.743611,0.30824 -1.295282,1.4313 l -0.806938,1.61717 0.773291,2.15643 c 0.403509,1.18594 0.807462,2.15609 0.84109,2.15609 0.03364,0 0.638545,0.25144 1.277436,0.53895 l 1.210664,0.53928 1.177018,-2.22827 1.177017,-2.22823 -0.740167,-1.4014 c -0.149533,-0.28126 -0.296906,-0.53166 -0.446536,-0.75703 -0.06697,-0.0398 -0.135259,-0.0787 -0.188102,-0.13133 -0.199723,-0.19893 -0.371263,-0.43746 -0.487327,-0.69188 -0.524662,-0.49575 -1.135123,-0.77313 -1.971202,-0.93559 -0.205965,-0.0393 -0.375307,-0.0645 -0.520962,-0.0655 z"
       inkscape:connector-curvature="0" />
    <path
       id="path856"
       style="fill:#000000;stroke:none;stroke-width:0.03476237"
       d="m 56.753024,262.24097 c -0.586432,3e-5 -1.152208,0.32831 -1.651331,1.00216 -0.369883,0.50312 -0.605274,1.11414 -0.53802,1.32976 0.100873,0.21564 0.437147,1.25777 0.773391,2.33589 0.538018,1.72502 0.773429,2.01247 2.051191,2.65934 0.199437,0.0888 0.398735,0.16653 0.588012,0.23068 0.317018,-0.0689 0.233033,-0.0524 0.664537,-0.13235 0.10326,-0.0191 0.208531,-0.0312 0.309957,-0.0566 0.163264,-0.0408 0.286498,-0.0886 0.416865,-0.13957 0.156969,-0.37706 0.355922,-0.92957 0.542466,-1.48339 0.504381,-1.61719 0.470754,-1.68897 -0.437146,-3.41398 -0.840112,-1.53297 -1.805076,-2.33196 -2.719922,-2.33193 z"
       inkscape:connector-curvature="0" />
    <path
       style="fill:#000000;stroke:none;stroke-width:0.03476237"
       inkscape:connector-curvature="0"
       d="m 211.5826,244.32608 c 0.50439,0.53908 0.57164,16.45945 0.0673,16.45945 -0.16813,0 -0.33626,0.1797 -0.33626,0.39532 0,0.25156 2.11842,0.35938 6.99412,0.25156 6.25434,-0.10781 7.09497,-0.17968 8.30549,-0.86251 1.74852,-0.97032 2.62281,-2.65938 2.38741,-4.81564 -0.10086,-1.32969 -0.36987,-1.83282 -1.4459,-2.80314 -2.32014,-2.1922 -2.89178,-2.37187 -7.49849,-2.37187 l -4.20318,-0.036 0.0673,-2.65939 c 0.0673,-2.01249 0.20176,-2.76719 0.60526,-3.01875 1.04238,-0.61094 0.0673,-0.97032 -2.62278,-0.97032 -2.11842,0 -2.62281,0.10781 -2.32018,0.43125 z m 12.77771,9.88286 c 1.14327,1.07814 1.24414,2.12033 0.26901,3.16251 -0.807,0.86251 -1.00877,0.89846 -4.90932,0.89846 h -4.03507 v -2.08439 c 0,-1.15001 0.10088,-2.22814 0.23537,-2.33595 0.10087,-0.14375 1.91667,-0.25157 4.00145,-0.25157 3.09354,0 3.86692,0.10782 4.43856,0.61094 z"
       id="path858" />
    <path
       style="fill:#000000;stroke:none;stroke-width:0.03476237"
       inkscape:connector-curvature="0"
       d="m 78.492778,273.3637 c 0,2.44377 0.03364,2.51565 0.840626,2.51565 0.7734,0 0.840645,-0.14374 0.840645,-1.6172 v -1.6172 h 5.716338 5.71634 v 1.6172 c 0,1.47346 0.06728,1.6172 0.840646,1.6172 0.77339,0 0.840645,-0.14374 0.840645,-1.6172 v -1.6172 h 5.884457 5.884475 v 1.6172 c 0,1.47346 0.0672,1.6172 0.84063,1.6172 0.77339,0 0.84064,-0.14374 0.84064,-1.6172 v -1.6172 h 5.71634 5.71635 v 1.6172 c 0,1.47346 0.0672,1.6172 0.84062,1.6172 0.77339,0 0.84064,-0.14374 0.84064,-1.6172 v -1.6172 h 5.71633 5.71633 v 1.6172 c 0,1.47346 0.0672,1.6172 0.84065,1.6172 0.77339,0 0.84064,-0.14374 0.84064,-1.6172 v -1.6172 h 5.71633 5.71635 v 1.79688 c 0,1.68908 0.0673,1.7969 0.84063,1.7969 0.77339,0 0.84064,-0.10782 0.84064,-1.7969 v -1.79688 h 5.71635 5.71634 v 1.6172 c 0,1.47346 0.0673,1.6172 0.84063,1.6172 0.7734,0 0.84064,-0.14374 0.84064,-1.6172 v -1.6172 h 5.71634 5.71634 v 1.6172 c 0,1.47346 0.0673,1.6172 0.84064,1.6172 0.77339,0 0.84064,-0.14374 0.84064,-1.6172 v -1.6172 h 5.88447 5.88447 v 1.6172 c 0,1.47346 0.0672,1.6172 0.84063,1.6172 0.77339,0 0.84065,-0.14374 0.84065,-1.6172 v -1.6172 h 5.71633 5.71634 v 1.6172 c 0,1.47346 0.0673,1.6172 0.84065,1.6172 0.77337,0 0.84063,-0.14374 0.84063,-1.6172 v -1.6172 h 5.71634 5.71634 v 1.6172 c 0,1.54532 0.0337,1.6172 1.00878,1.6172 0.97512,0 1.00877,-0.0719 1.00877,-1.6172 v -1.6172 h 4.87569 4.8757 v -0.89844 -0.89843 H 150.28327 78.492778 Z"
       id="path860" />
    <text
       xml:space="preserve"
       style="font-style:normal;font-variant:normal;font-weight:normal;font-stretch:normal;font-size:2.49045253px;line-height:1.25;font-family:'Avenir Next LT W04 Light';-inkscape-font-specification:'Avenir Next LT W04 Light, ';letter-spacing:0px;word-spacing:0px;fill:#000000;fill-opacity:1;stroke:none;stroke-width:0.06226131"
       x="130.09081"
       y="248.31502"
       id="text888"
       transform="scale(1.0759582,0.92940415)"><tspan
         sodipodi:role="line"
         id="tspan886"
         x="130.09081"
         y="248.31502"
         style="font-style:normal;font-variant:normal;font-weight:normal;font-stretch:normal;font-size:4.6488452px;font-family:'Times New Roman';-inkscape-font-specification:'Times New Roman, ';stroke-width:0.06226131">C<tspan
   style="font-style:normal;font-variant:normal;font-weight:normal;font-stretch:normal;font-size:4.6488452px;font-family:'Times New Roman';-inkscape-font-specification:'Times New Roman, ';baseline-shift:sub;stroke-width:0.06226131"
   id="tspan890">6</tspan>H<tspan
   style="font-style:normal;font-variant:normal;font-weight:normal;font-stretch:normal;font-size:4.6488452px;font-family:'Times New Roman';-inkscape-font-specification:'Times New Roman, ';baseline-shift:sub;stroke-width:0.06226131"
   id="tspan892">5</tspan><tspan
   id="tspan896"
   style="font-style:normal;font-variant:normal;font-weight:normal;font-stretch:normal;font-size:3.02174902px;font-family:'Times New Roman';-inkscape-font-specification:'Times New Roman, ';baseline-shift:super;stroke-width:0.06226131">+</tspan></tspan></text>
    <path
       style="fill:#000000;stroke:#000000;stroke-width:0.35297757;stroke-linecap:butt;stroke-linejoin:miter;stroke-miterlimit:4;stroke-dasharray:none;stroke-opacity:1"
       d="m 160.70718,198.07434 0.12785,40.81186 v 0"
       id="path898"
       inkscape:connector-curvature="0" />
    <path
       style="fill:#000000;stroke:#000000;stroke-width:0.35297757;stroke-linecap:butt;stroke-linejoin:miter;stroke-miterlimit:4;stroke-dasharray:none;stroke-opacity:1"
       d="m 155.60325,224.112 0.12787,14.84441 v 0"
       id="path898-5"
       inkscape:connector-curvature="0" />
    <text
       xml:space="preserve"
       style="font-style:normal;font-weight:normal;font-size:2.49045253px;line-height:1.25;font-family:sans-serif;letter-spacing:0px;word-spacing:0px;fill:#000000;fill-opacity:1;stroke:none;stroke-width:0.06226131"
       x="142.36522"
       y="238.88689"
       id="text917"
       transform="scale(1.0759582,0.92940415)"><tspan
         sodipodi:role="line"
         id="tspan915"
         x="142.36522"
         y="238.88689"
         style="font-style:normal;font-variant:normal;font-weight:normal;font-stretch:normal;font-size:4.6488452px;font-family:'Times New Roman';-inkscape-font-specification:'Times New Roman, ';stroke-width:0.06226131">77</tspan></text>
    <text
       xml:space="preserve"
       style="font-style:normal;font-weight:normal;font-size:2.49045253px;line-height:1.25;font-family:sans-serif;letter-spacing:0px;word-spacing:0px;fill:#000000;fill-opacity:1;stroke:none;stroke-width:0.06226131"
       x="146.99034"
       y="210.60243"
       id="text921"
       transform="scale(1.0759582,0.92940415)"><tspan
         sodipodi:role="line"
         id="tspan919"
         x="146.99034"
         y="210.60243"
         style="font-style:normal;font-variant:normal;font-weight:normal;font-stretch:normal;font-size:4.6488452px;font-family:'Times New Roman';-inkscape-font-specification:'Times New Roman, ';stroke-width:0.06226131">79</tspan></text>
    <text
       xml:space="preserve"
       style="font-style:normal;font-weight:normal;font-size:2.49045253px;line-height:1.25;font-family:sans-serif;letter-spacing:0px;word-spacing:0px;fill:#000000;fill-opacity:1;stroke:none;stroke-width:0.06226131"
       x="71.387291"
       y="301.32602"
       id="text925"
       transform="scale(1.0759582,0.92940415)"><tspan
         sodipodi:role="line"
         id="tspan923"
         x="71.387291"
         y="301.32602"
         style="font-style:normal;font-variant:normal;font-weight:normal;font-stretch:normal;font-size:4.6488452px;font-family:'Times New Roman';-inkscape-font-specification:'Times New Roman, ';stroke-width:0.06226131">10</tspan></text>
    <text
       xml:space="preserve"
       style="font-style:normal;font-weight:normal;font-size:2.49045253px;line-height:1.25;font-family:sans-serif;letter-spacing:0px;word-spacing:0px;fill:#000000;fill-opacity:1;stroke:none;stroke-width:0.06226131"
       x="133.82649"
       y="301.32602"
       id="text929"
       transform="scale(1.0759582,0.92940415)"><tspan
         sodipodi:role="line"
         id="tspan927"
         x="133.82649"
         y="301.32602"
         style="font-style:normal;font-variant:normal;font-weight:normal;font-stretch:normal;font-size:4.6488452px;font-family:'Times New Roman';-inkscape-font-specification:'Times New Roman, ';stroke-width:0.06226131">5</tspan></text>
    <text
       xml:space="preserve"
       style="font-style:normal;font-weight:normal;font-size:2.49045253px;line-height:1.25;font-family:sans-serif;letter-spacing:0px;word-spacing:0px;fill:#000000;fill-opacity:1;stroke:none;stroke-width:0.06226131"
       x="195.19833"
       y="300.79236"
       id="text933"
       transform="scale(1.0759582,0.92940415)"><tspan
         sodipodi:role="line"
         id="tspan931"
         x="195.19833"
         y="300.79236"
         style="font-style:normal;font-variant:normal;font-weight:normal;font-stretch:normal;font-size:4.6488452px;font-family:'Times New Roman';-inkscape-font-specification:'Times New Roman, ';stroke-width:0.06226131">0 ppm</tspan></text>
    <path
       style="fill:none;stroke:#000000;stroke-width:0.23531833;stroke-linecap:butt;stroke-linejoin:miter;stroke-miterlimit:4;stroke-dasharray:none;stroke-opacity:1"
       d="m 157.20843,231.43166 -1.1987,0.71157 1.13102,0.80822"
       id="path1001"
       inkscape:connector-curvature="0" />
    <path
       style="fill:none;stroke:#000000;stroke-width:0.47620818;stroke-linecap:butt;stroke-linejoin:miter;stroke-miterlimit:4;stroke-dasharray:none;stroke-opacity:1"
       d="m 156.15421,232.1436 14.54378,0.0577"
       id="path1005"
       inkscape:connector-curvature="0" />
    <path
       style="fill:#ffffff;stroke:#000000;stroke-width:2.62910795;stroke-miterlimit:4;stroke-dasharray:none"
       d=""
       id="path1056"
       inkscape:connector-curvature="0" />
    <g
       id="g1204"
       transform="matrix(0.03304132,0,0,-0.04355579,26.43151,286.95211)"
       style="fill:#000000;stroke:none">
      <path
         id="path1202"
         transform="matrix(2.0274787,0,0,-1.328547,2602.1639,2184.9166)"
         style="stroke-width:0.60930312"
         d="m 1290.7695,994.51953 c -1.7946,-0.30808 -3.6997,34.88407 -5.0175,109.63087 -1.9729,132.4755 -4.4376,166.3484 -11.836,155.8105 -0.9864,-2.2581 -3.947,-44.4103 -5.9199,-93.3359 l -4.4395,-90.3242 -3.9453,91.8301 -3.9453,92.582 h -78.4219 c -77.9293,0 -78.4238,-4e-4 -78.4238,-17.3125 0,-9.0324 -2.4655,-21.828 -4.9316,-27.8496 -3.9458,-9.0324 -4.9317,-8.2791 -4.9317,5.2695 0,21.0757 -4.9319,39.8926 -10.3574,39.8926 -2.4661,0 -4.4394,-34.6241 -4.4394,-76.7754 0,-61.7216 -1.481,-75.2712 -5.92,-67.7441 -3.9458,6.0216 -6.9041,36.8841 -7.8906,76.7773 -0.9864,37.6351 -3.946,67.7422 -6.4121,67.7422 -2.4661,0 -4.4395,-32.3654 -4.4395,-71.5059 0,-42.904 -1.9723,-71.5078 -4.9316,-71.5078 -2.4661,0 -4.9316,19.5706 -4.9316,42.9043 0,62.4743 -4.9327,100.1094 -12.8243,100.1094 -3.9457,0 -6.9062,-5.2694 -6.9062,-11.291 0,-6.0216 -1.9723,-11.2891 -4.9316,-11.2891 -2.4662,0 -4.9317,5.2675 -4.9317,11.2891 0,8.2797 -6.4126,11.291 -26.63475,11.291 -28.60696,0 -32.05848,-5.2694 -33.04492,-56.4531 0,-19.5703 -0.98689,-20.3214 -4.43945,-7.5254 -2.46612,8.2797 -4.43946,25.59 -4.43946,39.1386 -0.49322,18.0649 -2.46505,23.3348 -8.87695,22.5821 -7.39835,-0.7527 -8.38489,-6.7748 -7.39844,-36.8828 1.47967,-22.5811 -5.6e-4,-36.1289 -3.45312,-36.1289 -3.45257,0 -5.42579,15.0537 -5.42579,37.6347 0,28.6027 -1.97297,37.6348 -7.39843,37.6348 -5.42546,0 -7.39844,-9.0321 -7.39844,-37.6348 0,-22.581 -1.97322,-37.6347 -5.42578,-37.6347 -3.45257,0 -4.93084,13.549 -3.45117,36.8828 0.49322,20.3229 0.49334,36.8808 -0.98633,36.8808 -1.47967,0 -311.71728,0 -689.0332,0.7539 -454.25879,0.7527 -687.06055,3.0104 -687.06055,8.2793 0,5.2689 257.46172,7.5274 762.0293,7.5274 h 762.03128 l 0.4922,-24.8399 0.4941,-24.0859 3.4512,22.5801 c 1.4796,12.7959 6.4136,22.582 10.3593,22.582 2.8805,0 4.821,-3.2539 6.2872,-11.9277 -0.049,-0.519 -0.1352,-1.2883 -0.2911,-3.002 -0.263,-2.8918 0.402,-5.0143 1.4961,-6.3359 0.92,-9.1744 1.6466,-21.8125 2.3711,-38.9512 l 2.959,-60.2168 1.9746,60.2168 2.4649,60.2168 h 93.7128 93.7129 l 2.959,-41.3984 2.4668,-41.3985 2.4649,41.3985 c 2.4661,48.9256 14.7962,58.7094 19.7285,15.0527 2.4661,-21.8284 3.454,-22.5802 3.9472,-6.7734 0,11.2905 3.9449,24.0865 7.8907,29.3554 5.9187,7.5271 7.8912,6.0221 11.3437,-8.2793 l 4.4395,-18.0644 3.4531,17.3105 c 3.4526,16.5595 3.452,16.5606 126.7578,16.5606 78.4225,0 122.8125,-3.0112 122.8125,-7.5274 0,-4.5162 -44.3889,-7.5273 -123.3047,-7.5273 h -123.3066 v -44.4102 c 0,-24.8391 -1.9723,-47.4196 -4.9317,-49.6777 -2.9593,-3.0108 -4.9335,9.7854 -4.9336,33.1191 0,40.6459 -3.4522,60.9688 -10.3574,60.9688 -2.4661,0 -4.4384,-48.1733 -4.9316,-107.6367 -0.5472,-102.7086 -2.6122,-158.17292 -4.8477,-158.55667 z"
         inkscape:connector-curvature="0" />
    </g>
    <path
       style="fill:#b4d6e0;fill-opacity:1;stroke:#000000;stroke-width:0.06118277;stroke-linecap:butt;stroke-linejoin:miter;stroke-miterlimit:4;stroke-dasharray:none;stroke-opacity:1"
       d="m 198.33356,239.97369 c 0,0 0.90249,1.48444 1.14909,2.17186 0.26555,0.74029 0.36675,2.10041 0.36675,2.10041 0,0 2.22868,-0.60813 3.84268,-0.62778 0.74213,-0.009 0.46997,-0.30878 0.12673,-0.81655 -0.25318,-0.37452 -0.38193,-0.75981 -1.75709,-1.82759 -0.35779,-0.27782 -1.1569,-0.58732 -1.81015,-0.79575 -0.62831,-0.20046 -1.91797,-0.2046 -1.91797,-0.2046 z"
       id="path5323"
       inkscape:connector-curvature="0"
       sodipodi:nodetypes="cscsssscc" />
    <path
       id="path5632"
       style="fill:#000000;fill-opacity:1;stroke:#000000;stroke-width:1.3769809;stroke-miterlimit:4;stroke-dasharray:none"
       d="m 40.176847,225.82009 a 1.5553708,1.3859032 0 0 0 -1.555358,1.3859 1.5553708,1.3859032 0 0 0 1.555358,1.38588 1.5553708,1.3859032 0 0 0 1.555356,-1.38588 1.5553708,1.3859032 0 0 0 -1.555356,-1.3859 z"
       inkscape:connector-curvature="0" />
    <path
       style="fill:none;stroke:#000000;stroke-width:0.06226131px;stroke-linecap:butt;stroke-linejoin:miter;stroke-opacity:1"
       d="m 54.619663,259.27886 -0.56843,-0.81835"
       id="path6842"
       inkscape:connector-curvature="0" />
    <path
       id="path5632-76"
       style="fill:#000000;fill-opacity:1;stroke:#000000;stroke-width:1.3769809;stroke-miterlimit:4;stroke-dasharray:none"
       d="m 33.756524,231.71338 a 1.5553708,1.3859032 0 0 0 -1.555356,1.38588 1.5553708,1.3859032 0 0 0 1.555356,1.38589 1.5553708,1.3859032 0 0 0 1.555357,-1.38589 1.5553708,1.3859032 0 0 0 -1.555357,-1.38588 z"
       inkscape:connector-curvature="0" />
    <path
       id="path5632-76-1"
       style="fill:#000000;fill-opacity:1;stroke:#000000;stroke-width:1.3769809;stroke-miterlimit:4;stroke-dasharray:none"
       d="m 36.178824,238.50546 a 1.5553708,1.3859032 0 0 0 -1.555357,1.3859 1.5553708,1.3859032 0 0 0 1.555357,1.38588 1.5553708,1.3859032 0 0 0 1.555355,-1.38588 1.5553708,1.3859032 0 0 0 -1.555355,-1.3859 z"
       inkscape:connector-curvature="0" />
    <path
       id="path5632-76-15"
       style="fill:#000000;fill-opacity:1;stroke:#000000;stroke-width:1.3769809;stroke-miterlimit:4;stroke-dasharray:none"
       d="m 31.334225,245.18046 a 1.5553708,1.3859032 0 0 0 -1.555356,1.38589 1.5553708,1.3859032 0 0 0 1.555356,1.38588 1.5553708,1.3859032 0 0 0 1.555356,-1.38588 1.5553708,1.3859032 0 0 0 -1.555356,-1.38589 z"
       inkscape:connector-curvature="0" />
    <path
       id="path5632-76-4"
       style="fill:#000000;fill-opacity:1;stroke:#000000;stroke-width:1.3769809;stroke-miterlimit:4;stroke-dasharray:none"
       d="m 32.949091,252.32388 a 1.5553708,1.3859032 0 0 0 -1.555357,1.38589 1.5553708,1.3859032 0 0 0 1.555357,1.38589 1.5553708,1.3859032 0 0 0 1.555356,-1.38589 1.5553708,1.3859032 0 0 0 -1.555356,-1.38589 z"
       inkscape:connector-curvature="0" />
    <path
       id="path5632-76-3"
       style="fill:#000000;fill-opacity:1;stroke:#000000;stroke-width:1.3769809;stroke-miterlimit:4;stroke-dasharray:none"
       d="m 67.668706,243.18967 a 1.5553708,1.3859032 0 0 0 -1.555354,1.3859 1.5553708,1.3859032 0 0 0 1.555354,1.38588 1.5553708,1.3859032 0 0 0 1.555353,-1.38588 1.5553708,1.3859032 0 0 0 -1.555353,-1.3859 z"
       inkscape:connector-curvature="0" />
    <path
       id="path5632-76-47"
       style="fill:#000000;fill-opacity:1;stroke:#000000;stroke-width:1.3769809;stroke-miterlimit:4;stroke-dasharray:none"
       d="m 64.438978,250.8015 a 1.5553708,1.3859032 0 0 0 -1.555363,1.3859 1.5553708,1.3859032 0 0 0 1.555363,1.38588 1.5553708,1.3859032 0 0 0 1.555352,-1.38588 1.5553708,1.3859032 0 0 0 -1.555352,-1.3859 z"
       inkscape:connector-curvature="0" />
    <path
       id="path5632-76-38"
       style="fill:#000000;fill-opacity:1;stroke:#000000;stroke-width:1.3769809;stroke-miterlimit:4;stroke-dasharray:none"
       d="m 73.051593,253.14361 a 1.5553708,1.3859032 0 0 0 -1.555363,1.38588 1.5553708,1.3859032 0 0 0 1.555363,1.3859 1.5553708,1.3859032 0 0 0 1.555353,-1.3859 1.5553708,1.3859032 0 0 0 -1.555353,-1.38588 z"
       inkscape:connector-curvature="0" />
    <path
       id="path5632-76-35"
       style="fill:#000000;fill-opacity:1;stroke:#000000;stroke-width:1.3769809;stroke-miterlimit:4;stroke-dasharray:none"
       d="m 61.747535,259.11599 a 1.5553708,1.3859032 0 0 0 -1.555363,1.38589 1.5553708,1.3859032 0 0 0 1.555363,1.38588 1.5553708,1.3859032 0 0 0 1.555352,-1.38588 1.5553708,1.3859032 0 0 0 -1.555352,-1.38589 z"
       inkscape:connector-curvature="0" />
    <path
       id="path5632-76-2"
       style="fill:#000000;fill-opacity:1;stroke:#000000;stroke-width:1.3769809;stroke-miterlimit:4;stroke-dasharray:none"
       d="m 64.3044,265.20544 a 1.5553708,1.3859032 0 0 0 -1.555353,1.3859 1.5553708,1.3859032 0 0 0 1.555353,1.38587 1.5553708,1.3859032 0 0 0 1.555362,-1.38587 1.5553708,1.3859032 0 0 0 -1.555362,-1.3859 z"
       inkscape:connector-curvature="0" />
    <path
       id="path5632-76-0"
       style="fill:#000000;fill-opacity:1;stroke:#000000;stroke-width:1.3769809;stroke-miterlimit:4;stroke-dasharray:none"
       d="m 54.480637,257.0081 a 1.5553708,1.3859032 0 0 0 -1.555364,1.38588 1.5553708,1.3859032 0 0 0 1.555364,1.38589 1.5553708,1.3859032 0 0 0 1.555352,-1.38589 1.5553708,1.3859032 0 0 0 -1.555352,-1.38588 z"
       inkscape:connector-curvature="0" />
    <path
       id="path5632-76-24"
       style="fill:#000000;fill-opacity:1;stroke:#000000;stroke-width:1.3769809;stroke-miterlimit:4;stroke-dasharray:none"
       d="m 49.905182,263.44887 a 1.5553708,1.3859032 0 0 0 -1.555354,1.38589 1.5553708,1.3859032 0 0 0 1.555354,1.38589 1.5553708,1.3859032 0 0 0 1.555352,-1.38589 1.5553708,1.3859032 0 0 0 -1.555352,-1.38589 z"
       inkscape:connector-curvature="0" />
    <path
       id="path5632-76-14"
       style="fill:#000000;fill-opacity:1;stroke:#000000;stroke-width:1.3769809;stroke-miterlimit:4;stroke-dasharray:none"
       d="m 52.462056,270.24097 a 1.5553708,1.3859032 0 0 0 -1.555362,1.3859 1.5553708,1.3859032 0 0 0 1.555362,1.38588 1.5553708,1.3859032 0 0 0 1.555353,-1.38588 1.5553708,1.3859032 0 0 0 -1.555353,-1.3859 z"
       inkscape:connector-curvature="0" />
    <path
       id="path5632-76-6"
       style="fill:#000000;fill-opacity:1;stroke:#000000;stroke-width:1.3769809;stroke-miterlimit:4;stroke-dasharray:none"
       d="m 42.234571,262.16072 a 1.5553708,1.3859032 0 0 0 -1.555359,1.38589 1.5553708,1.3859032 0 0 0 1.555359,1.38588 1.5553708,1.3859032 0 0 0 1.555356,-1.38588 1.5553708,1.3859032 0 0 0 -1.555356,-1.38589 z"
       inkscape:connector-curvature="0" />
    <path
       id="path5632-76-8"
       style="fill:#000000;fill-opacity:1;stroke:#000000;stroke-width:1.3769809;stroke-miterlimit:4;stroke-dasharray:none"
       d="m 37.524544,267.54756 a 1.5553708,1.3859032 0 0 0 -1.555357,1.38588 1.5553708,1.3859032 0 0 0 1.555357,1.38589 1.5553708,1.3859032 0 0 0 1.555357,-1.38589 1.5553708,1.3859032 0 0 0 -1.555357,-1.38588 z"
       inkscape:connector-curvature="0" />
    <path
       id="path5632-76-19"
       style="fill:#000000;fill-opacity:1;stroke:#000000;stroke-width:1.3769809;stroke-miterlimit:4;stroke-dasharray:none"
       d="m 39.273983,254.78309 a 1.5553708,1.3859032 0 0 0 -1.555357,1.38588 1.5553708,1.3859032 0 0 0 1.555357,1.3859 1.5553708,1.3859032 0 0 0 1.555356,-1.3859 1.5553708,1.3859032 0 0 0 -1.555356,-1.38588 z"
       inkscape:connector-curvature="0" />
    <path
       id="path5632-76-472"
       style="fill:#000000;fill-opacity:1;stroke:#000000;stroke-width:1.3769809;stroke-miterlimit:4;stroke-dasharray:none"
       d="m 43.44572,247.52256 a 1.5553708,1.3859032 0 0 0 -1.555357,1.38589 1.5553708,1.3859032 0 0 0 1.555357,1.38588 1.5553708,1.3859032 0 0 0 1.555357,-1.38588 1.5553708,1.3859032 0 0 0 -1.555357,-1.38589 z"
       inkscape:connector-curvature="0" />
    <path
       id="path5632-76-10"
       style="fill:#000000;fill-opacity:1;stroke:#000000;stroke-width:1.3769809;stroke-miterlimit:4;stroke-dasharray:none"
       d="m 52.192908,250.4502 a 1.5553708,1.3859032 0 0 0 -1.555362,1.38589 1.5553708,1.3859032 0 0 0 1.555362,1.38588 1.5553708,1.3859032 0 0 0 1.555354,-1.38588 1.5553708,1.3859032 0 0 0 -1.555354,-1.38589 z"
       inkscape:connector-curvature="0" />
    <path
       style="fill:none;stroke:#000000;stroke-width:1.38028169;stroke-linecap:butt;stroke-linejoin:miter;stroke-miterlimit:4;stroke-dasharray:none;stroke-opacity:1"
       d="m 38.870266,221.38874 1.345721,5.85525 -6.324891,5.85527 v 0 l 2.153154,6.7921 -4.710025,6.79209 1.480293,6.90921 6.324893,2.57631 3.229731,7.37764"
       id="path1002"
       inkscape:connector-curvature="0" />
    <path
       style="fill:none;stroke:#000000;stroke-width:1.38028169;stroke-linecap:butt;stroke-linejoin:miter;stroke-miterlimit:4;stroke-dasharray:none;stroke-opacity:1"
       d="m 29.719359,230.87425 4.037164,2.34211"
       id="path1004"
       inkscape:connector-curvature="0" />
    <path
       style="fill:none;stroke:#000000;stroke-width:1.38028169;stroke-linecap:butt;stroke-linejoin:miter;stroke-miterlimit:4;stroke-dasharray:none;stroke-opacity:1"
       d="m 31.199653,246.44925 -5.517459,-3.63027"
       id="path1006"
       inkscape:connector-curvature="0" />
    <path
       style="fill:none;stroke:#000000;stroke-width:1.38028169;stroke-linecap:butt;stroke-linejoin:miter;stroke-miterlimit:4;stroke-dasharray:none;stroke-opacity:1"
       d="m 32.27623,254.17819 -3.633448,4.44999"
       id="path1008"
       inkscape:connector-curvature="0" />
    <path
       style="fill:none;stroke:#000000;stroke-width:1.38028169;stroke-linecap:butt;stroke-linejoin:miter;stroke-miterlimit:4;stroke-dasharray:none;stroke-opacity:1"
       d="m 41.965425,263.66371 -4.306309,5.26972"
       id="path1010"
       inkscape:connector-curvature="0" />
    <path
       style="fill:none;stroke:#000000;stroke-width:1.38028169;stroke-linecap:butt;stroke-linejoin:miter;stroke-miterlimit:4;stroke-dasharray:none;stroke-opacity:1"
       d="m 43.445719,248.79134 -3.902593,7.37762"
       id="path1012"
       inkscape:connector-curvature="0" />
    <path
       style="fill:none;stroke:#000000;stroke-width:1.38028169;stroke-linecap:butt;stroke-linejoin:miter;stroke-miterlimit:4;stroke-dasharray:none;stroke-opacity:1"
       d="m 67.534138,244.80977 -2.826023,7.26052"
       id="path1014"
       inkscape:connector-curvature="0" />
    <path
       style="fill:none;stroke:#000000;stroke-width:1.38028169;stroke-linecap:butt;stroke-linejoin:miter;stroke-miterlimit:4;stroke-dasharray:none;stroke-opacity:1"
       d="m 43.176574,248.90845 9.150903,2.81052 2.422307,6.675 -4.575455,6.7921 -7.670615,-1.28815"
       id="path1016"
       inkscape:connector-curvature="0" />
    <path
       style="fill:none;stroke:#000000;stroke-width:1.38028169;stroke-linecap:butt;stroke-linejoin:miter;stroke-miterlimit:4;stroke-dasharray:none;stroke-opacity:1"
       d="m 50.174329,264.95187 2.422296,6.67499"
       id="path1018"
       inkscape:connector-curvature="0" />
    <path
       style="fill:none;stroke:#000000;stroke-width:1.38028169;stroke-linecap:butt;stroke-linejoin:miter;stroke-miterlimit:4;stroke-dasharray:none;stroke-opacity:1"
       d="m 54.749784,258.39398 7.132319,1.99077 2.691443,6.2066 -0.807432,5.26972"
       id="path1020"
       inkscape:connector-curvature="0" />
    <path
       style="fill:none;stroke:#000000;stroke-width:1.38028169;stroke-linecap:butt;stroke-linejoin:miter;stroke-miterlimit:4;stroke-dasharray:none;stroke-opacity:1"
       d="m 57.441216,274.32028 -5.113739,-2.57633 -2.153148,3.51317"
       id="path1024"
       inkscape:connector-curvature="0" />
    <path
       style="fill:none;stroke:#000000;stroke-width:1.38028169;stroke-linecap:butt;stroke-linejoin:miter;stroke-miterlimit:4;stroke-dasharray:none;stroke-opacity:1"
       d="m 61.612957,260.26765 2.960589,-7.96315 8.478047,2.22501 2.691444,5.15263"
       id="path1026"
       inkscape:connector-curvature="0" />
    <path
       style="fill:#b4d6e0;fill-opacity:1;stroke:#000000;stroke-width:1.38028169;stroke-linecap:butt;stroke-linejoin:miter;stroke-miterlimit:4;stroke-dasharray:none;stroke-opacity:1"
       d="m 64.438978,266.47423 5.248307,1.40527"
       id="path1028"
       inkscape:connector-curvature="0" />
    <path
       style="fill:#b4d6e0;fill-opacity:1;stroke:none;stroke-width:0.71169579;stroke-miterlimit:4;stroke-dasharray:none"
       d="m 31.706885,231.1939 c -0.280664,-0.16172 -0.565701,-0.33749 -0.633416,-0.39062 -0.312701,-0.24533 3.520292,-4.51767 5.656036,-6.30435 0.851529,-0.71236 1.593425,-1.2952 1.648658,-1.2952 0.05523,0 0.205686,0.47783 0.334339,1.06185 l 0.233914,1.06185 -0.418695,0.41497 c -0.230282,0.22824 -0.475197,0.5443 -0.544252,0.70236 -0.149463,0.34208 -0.149582,1.17302 -2.18e-4,1.50172 0.08782,0.19329 -0.174227,0.49426 -1.49943,1.72212 l -1.605856,1.48789 -0.831397,-0.0622 c -0.6611,-0.0495 -0.933608,-0.0156 -1.330392,0.16572 l -0.498996,0.228 z"
       id="path1030"
       inkscape:connector-curvature="0" />
    <path
       style="fill:#b4d6e0;fill-opacity:1;stroke:none;stroke-width:0.71169579;stroke-miterlimit:4;stroke-dasharray:none"
       d="m 28.523655,243.81015 -1.456365,-0.95415 0.09273,-0.8383 c 0.304634,-2.75378 1.487146,-6.61015 2.780874,-9.06893 l 0.448251,-0.85193 0.504646,0.30043 c 0.421082,0.25068 0.504646,0.36822 0.504646,0.70983 0,0.88888 0.731575,1.70864 1.760883,1.97311 l 0.582866,0.14975 0.467529,1.49323 c 0.30621,0.97799 0.424237,1.54415 0.342062,1.64085 -0.525405,0.61817 -0.644799,0.84589 -0.698502,1.33224 -0.03887,0.35205 0.01695,0.71538 0.153632,1.00006 l 0.214686,0.44713 -1.150671,1.6728 -1.15067,1.67279 -0.698267,0.0627 c -0.384047,0.0345 -0.820602,0.0964 -0.970121,0.13762 -0.20475,0.0564 -0.631342,-0.16059 -1.728219,-0.87923 z"
       id="path1032"
       inkscape:connector-curvature="0" />
    <path
       style="fill:#b4d6e0;fill-opacity:1;stroke:none;stroke-width:0.71169579;stroke-miterlimit:4;stroke-dasharray:none"
       d="m 28.803326,255.09238 c -1.003484,-3.13421 -1.543874,-5.96005 -1.67284,-8.74775 l -0.08068,-1.74395 1.007313,0.65975 c 0.921049,0.60327 1.002237,0.68987 0.948028,1.01128 -0.151146,0.89615 0.562135,1.95205 1.500747,2.22162 l 0.435413,0.12504 0.352074,1.66735 0.352075,1.66733 -0.384396,0.35132 c -0.637001,0.58218 -0.845645,1.39797 -0.537768,2.10264 0.11584,0.26514 0.04691,0.40797 -0.554667,1.14939 -0.377819,0.46567 -0.731526,0.88921 -0.786014,0.94125 -0.05449,0.052 -0.315166,-0.58033 -0.579285,-1.40527 z"
       id="path1034"
       inkscape:connector-curvature="0" />
    <path
       style="fill:#b4d6e0;fill-opacity:1;stroke:none;stroke-width:0.71169579;stroke-miterlimit:4;stroke-dasharray:none"
       d="m 35.353721,266.66939 c -0.845816,-0.92527 -2.185262,-2.69278 -2.987808,-3.94266 -0.753986,-1.17425 -2.313189,-4.17193 -2.313189,-4.44726 0,-0.0975 0.451948,-0.7233 1.004328,-1.39067 l 1.004329,-1.21338 0.648022,0.0542 c 0.622645,0.052 1.252784,-0.10636 1.789748,-0.44996 0.16317,-0.10441 0.442994,-0.039 1.312079,0.30672 0.934748,0.37181 1.104674,0.4825 1.104674,0.71963 0,0.75722 0.932746,1.71704 1.807338,1.85982 0.434282,0.0709 0.493163,0.13557 0.83166,0.91334 0.200357,0.46038 0.562427,1.28498 0.804599,1.83244 l 0.440313,0.99538 -0.318527,0.29278 c -0.584908,0.53759 -0.760298,1.33345 -0.459398,2.08458 0.137234,0.34258 0.0929,0.42738 -0.78964,1.51058 l -0.935039,1.14759 -0.65701,-0.0354 c -0.45521,-0.0245 -0.814076,0.0354 -1.168382,0.19531 l -0.511371,0.23077 z"
       id="path1036"
       inkscape:connector-curvature="0" />
    <path
       style="fill:#b4d6e0;fill-opacity:1;stroke:none;stroke-width:0.71169579;stroke-miterlimit:4;stroke-dasharray:none"
       d="m 46.080409,263.79598 -1.399408,-0.25251 -0.181142,-0.54061 c -0.218519,-0.65214 -1.027951,-1.3403 -1.706861,-1.45114 -0.459431,-0.075 -0.471566,-0.0932 -1.272519,-1.90957 l -0.808664,-1.83383 0.313924,-0.29278 c 0.63817,-0.59514 0.782411,-1.51313 0.352939,-2.24618 l -0.247251,-0.42202 1.021041,-1.94374 c 0.95016,-1.8088 1.046125,-1.94382 1.382354,-1.94484 0.474469,-0.002 1.053327,-0.19746 1.38812,-0.47005 0.264146,-0.21507 0.312304,-0.20591 2.590523,0.49222 2.131911,0.6533 2.321363,0.73425 2.321363,0.99188 0,0.78833 0.835054,1.63136 1.8347,1.85223 l 0.635972,0.14053 0.467331,1.3019 0.467331,1.30188 -0.483914,0.46611 c -0.744694,0.7173 -0.838928,1.77917 -0.222301,2.50494 l 0.284268,0.33458 -1.00378,1.48441 -1.003781,1.48445 -0.618422,-0.0396 c -0.889256,-0.0568 -1.488424,0.1586 -2.086989,0.75032 -0.288628,0.28536 -0.547429,0.5132 -0.575107,0.50634 -0.02773,-0.007 -0.680055,-0.12611 -1.449727,-0.26496 z m 2.245982,-3.88752 c 0.346591,-0.21124 0.659024,-0.71189 1.244065,-1.99349 l 0.415149,-0.90945 -0.490334,-1.23808 c -0.788473,-1.99091 -0.901942,-2.09756 -2.741268,-2.57676 -1.478974,-0.38528 -1.51563,-0.36535 -2.448622,1.33193 l -0.795643,1.4474 0.481701,1.21191 c 0.631165,1.58796 0.998245,2.12462 1.633427,2.38796 1.257658,0.52146 2.206416,0.64034 2.701525,0.33858 z"
       id="path1038"
       inkscape:connector-curvature="0" />
    <path
       style="fill:#b4d6e0;fill-opacity:1;stroke:none;stroke-width:0.71169579;stroke-miterlimit:4;stroke-dasharray:none"
       d="m 48.432353,273.55067 c -2.5354,-0.47524 -6.470811,-1.81946 -8.165743,-2.78917 l -0.88488,-0.50627 0.256267,-0.42675 c 0.25151,-0.41883 0.269592,-1.19747 0.04254,-1.83202 -0.06123,-0.17115 0.163568,-0.53258 0.835031,-1.34254 l 0.918832,-1.10831 0.603498,0.0323 c 0.692568,0.0371 1.27397,-0.12531 1.704148,-0.47596 l 0.299396,-0.24407 1.786475,0.31128 c 0.982554,0.17119 1.808609,0.36867 1.835677,0.43884 0.02702,0.0702 0.238066,0.31479 0.468899,0.54357 0.442799,0.43885 1.083595,0.73238 1.598875,0.73238 0.277985,0 0.363923,0.15194 0.858894,1.51843 l 0.550003,1.51842 -0.33363,0.26743 c -0.715822,0.57378 -0.902919,1.57415 -0.441654,2.36144 0.24561,0.41922 0.248107,0.46905 0.04232,0.84449 -0.255475,0.46621 -0.302754,0.46996 -1.975,0.15652 z"
       id="path1040"
       inkscape:connector-curvature="0" />
    <path
       style="fill:#b4d6e0;fill-opacity:1;stroke:none;stroke-width:0.71169579;stroke-miterlimit:4;stroke-dasharray:none"
       d="m 55.927491,272.76143 -1.106941,-0.54917 -0.003,-0.50148 c -0.0021,-0.27579 -0.08513,-0.67186 -0.185095,-0.8801 -0.2296,-0.4782 -1.022454,-1.09056 -1.540102,-1.18948 -0.370128,-0.0707 -0.427805,-0.16203 -0.876462,-1.38721 -0.702901,-1.91945 -0.697781,-1.88685 -0.35917,-2.28541 0.348427,-0.41009 0.491381,-1.26605 0.293808,-1.75923 -0.128709,-0.3213 -0.04941,-0.48382 1.00393,-2.05751 0.959785,-1.43393 1.194576,-1.70868 1.460271,-1.70868 0.471976,0 1.030049,-0.2124 1.42978,-0.54419 l 0.355508,-0.29507 1.446481,0.39089 1.446472,0.39089 0.163727,0.56112 c 0.258039,0.88438 1.221623,1.60426 2.147338,1.60426 0.367308,0 0.424225,0.0861 1.023293,1.54685 l 0.322197,0.78567 -0.35833,0.32683 c -0.972491,0.88701 -0.851456,2.13736 0.289153,2.98693 l 0.565056,0.4209 -0.164763,1.18298 c -0.09066,0.65062 -0.237099,1.23522 -0.325514,1.29907 -0.277127,0.20014 -5.492695,2.22482 -5.711938,2.21736 -0.114663,-0.004 -0.706601,-0.25419 -1.315424,-0.55622 z m 3.33059,-3.18555 c 0.21302,-0.0992 0.801682,-1.67731 1.012473,-2.71422 0.1082,-0.53229 -0.178672,-1.34523 -0.901291,-2.55401 -0.596208,-0.99733 -0.962608,-1.39459 -1.673616,-1.81445 -1.042065,-0.61538 -2.124749,-0.20825 -2.866456,1.07787 -0.364812,0.63258 -0.357955,0.87362 0.06194,2.17833 0.883111,2.74385 1.106459,3.12362 2.19456,3.73138 0.54735,0.30573 0.700671,0.33841 1.284066,0.27373 0.364375,-0.0404 0.764097,-0.12079 0.888289,-0.17863 z"
       id="path1042"
       inkscape:connector-curvature="0" />
    <path
       style="fill:#b4d6e0;fill-opacity:1;stroke:none;stroke-width:0.71169579;stroke-miterlimit:4;stroke-dasharray:none"
       d="m 67.683946,266.62063 c -0.857474,-0.23016 -0.940659,-0.28237 -1.160258,-0.72817 -0.281468,-0.57143 -1.035948,-1.18104 -1.593586,-1.28762 -0.367504,-0.0702 -0.445986,-0.18255 -0.952171,-1.36246 l -0.551651,-1.28591 0.273034,-0.32138 c 0.594904,-0.70022 0.505042,-1.78033 -0.20503,-2.46428 l -0.455405,-0.43865 0.820038,-2.23463 0.82005,-2.2346 0.495779,-0.12926 c 0.272679,-0.0711 0.605865,-0.2351 0.740404,-0.36447 0.134539,-0.12938 0.310931,-0.23538 0.391988,-0.23557 0.08107,-1.8e-4 1.09607,0.24477 2.255628,0.54432 l 2.108267,0.54463 0.08611,0.3995 c 0.163717,0.75942 1.132094,1.45585 2.196058,1.57938 0.248807,0.0289 0.434522,0.27649 0.96096,1.28127 l 0.652543,1.24545 -0.804375,1.33086 c -0.442413,0.73195 -1.020934,1.64703 -1.285624,2.03347 -1.203878,1.75771 -3.451438,4.39509 -3.734503,4.38219 -0.07399,-0.003 -0.550241,-0.11768 -1.05827,-0.25407 z m 3.05442,-4.54197 1.174937,-2.229 -0.53794,-0.99894 c -0.295869,-0.54943 -0.676297,-1.15278 -0.8454,-1.34079 -0.169103,-0.18801 -0.454921,-0.50774 -0.635171,-0.71054 -0.415367,-0.46729 -1.523097,-0.92068 -2.253026,-0.92218 -0.714253,-0.003 -0.890774,0.18625 -1.71473,1.82347 l -0.623966,1.23984 0.778993,2.12731 0.778994,2.12731 1.209728,0.55198 c 0.665346,0.30359 1.273382,0.55391 1.351181,0.55626 0.07782,0.003 0.67018,-0.99879 1.3164,-2.22472 z"
       id="path1044"
       inkscape:connector-curvature="0" />
    <path
       style="fill:#6f8a91;fill-opacity:1;stroke:none;stroke-width:0.71169579;stroke-miterlimit:4;stroke-dasharray:none"
       d="m 46.490458,259.75066 c -0.396121,-0.11903 -0.880586,-0.31726 -1.07658,-0.44049 -0.436268,-0.27431 -0.960759,-1.1903 -1.401733,-2.44801 l -0.331732,-0.94614 0.75584,-1.33442 c 0.415706,-0.73395 0.856818,-1.38546 0.98024,-1.44782 0.272669,-0.13779 2.448713,0.4162 2.851599,0.72597 0.305311,0.23474 0.868463,1.27894 1.284716,2.38219 l 0.292694,0.77572 -0.412387,0.90337 c -0.98631,2.16061 -1.264888,2.33382 -2.942657,1.82963 z"
       id="path1063"
       inkscape:connector-curvature="0" />
    <path
       style="fill:#6f8a91;fill-opacity:1;stroke:#6f8a91;stroke-width:0.71169579;stroke-miterlimit:4;stroke-dasharray:none"
       d="m 57.370875,269.54504 c -1.2772,-0.59923 -1.548004,-0.98031 -2.280378,-3.20901 -0.609398,-1.85443 -0.641022,-2.11239 -0.324753,-2.649 0.894652,-1.51796 2.134091,-1.7834 3.302596,-0.70726 0.552913,0.50919 1.259906,1.59831 1.665092,2.56508 0.335949,0.80154 0.35339,0.92551 0.214737,1.52631 -0.234741,1.01714 -0.678062,2.23243 -0.862554,2.36456 -0.297685,0.21323 -1.350284,0.28032 -1.71474,0.10932 z"
       id="path1065"
       inkscape:connector-curvature="0" />
    <path
       style="fill:#6f8a91;fill-opacity:1;stroke:#6f8a91;stroke-width:0.71169579;stroke-miterlimit:4;stroke-dasharray:none"
       d="m 68.103001,263.65603 c -0.64763,-0.28708 -1.177511,-0.55003 -1.177511,-0.58435 0,-0.0343 -0.332821,-0.98167 -0.739614,-2.10526 l -0.739615,-2.04291 0.61197,-1.20168 c 0.863353,-1.69532 0.89412,-1.72866 1.595146,-1.72866 0.818569,0 1.895345,0.51288 2.461812,1.17259 0.248156,0.289 0.721791,1.01159 1.052531,1.60578 l 0.601337,1.08035 -1.129136,2.13592 c -0.621027,1.17476 -1.180954,2.14815 -1.244283,2.16306 -0.06333,0.015 -0.645006,-0.20777 -1.292637,-0.49484 z"
       id="path1067"
       inkscape:connector-curvature="0" />
    <path
       style="fill:#6f8a91;fill-opacity:1;stroke:#6f8a91;stroke-width:0.71169579;stroke-miterlimit:4;stroke-dasharray:none;stroke-opacity:1"
       d="m 47.461687,259.98666 c -0.06402,-0.0469 -0.457585,-0.17497 -0.874539,-0.28451 -1.33244,-0.35008 -1.740664,-0.8089 -2.474722,-2.78147 l -0.373895,-1.00473 0.798713,-1.33737 0.798706,-1.33738 0.607721,0.017 c 0.334252,0.009 0.965941,0.14106 1.403757,0.29275 0.967116,0.33508 1.305777,0.73029 1.987488,2.31928 l 0.474769,1.10666 -0.264748,0.59139 c -0.576587,1.28791 -1.119173,2.09595 -1.544956,2.3008 -0.232018,0.11164 -0.474246,0.16455 -0.538294,0.1176 z"
       id="path1069"
       inkscape:connector-curvature="0" />
    <path
       style="fill:#6f8a91;fill-opacity:1;stroke:none;stroke-width:0.71169579;stroke-miterlimit:4;stroke-dasharray:none"
       d="m 29.444735,241.68532 c -0.516775,-0.26615 -2.029006,-0.72546 -2.044697,-0.73444 0.525329,-1.79933 1.396103,-7.16866 2.219649,-6.32319 0.504179,0.18327 1.24047,0.7154 1.24047,0.89651 0,0.0538 0.144251,0.29419 0.320559,0.53434 0.176308,0.24014 0.480574,0.8055 0.676146,1.25636 l 0.355588,0.81975 -0.914062,2.01729 -0.914062,2.01729 z"
       id="path1071"
       inkscape:connector-curvature="0"
       inkscape:transform-center-x="-0.40371677"
       inkscape:transform-center-y="-1.8736845"
       sodipodi:nodetypes="cccscccccc" />
    <path
       style="fill:#b4d6e0;fill-opacity:1;stroke:none;stroke-width:0.71221149;stroke-miterlimit:4;stroke-dasharray:none;stroke-opacity:1"
       d="m 65.013306,269.3214 c 0.0704,-0.54613 0.169519,-0.80614 0.335074,-0.87894 0.12931,-0.0569 0.417155,-0.24447 0.639659,-0.41693 0.381834,-0.29594 0.43583,-0.30626 0.961499,-0.18377 0.306321,0.0714 0.556948,0.16033 0.556948,0.19766 0,0.0373 -0.583459,0.51554 -1.296575,1.0627 l -1.296572,0.99484 z"
       id="path895"
       inkscape:connector-curvature="0" />
    <path
       style="fill:#b4d6e0;fill-opacity:1;stroke:none;stroke-width:0.71221149;stroke-miterlimit:4;stroke-dasharray:none;stroke-opacity:1"
       d="m 51.980048,273.80854 c 0,-0.0609 0.144224,-0.11055 0.3205,-0.11024 0.176274,2e-4 0.613953,-0.0813 0.972619,-0.18123 0.618776,-0.17248 0.673137,-0.17109 1.063255,0.0272 l 0.411136,0.20892 -0.707144,0.0734 c -1.090083,0.11313 -2.060366,0.10465 -2.060366,-0.018 z"
       id="path899"
       inkscape:connector-curvature="0" />
    <text
       xml:space="preserve"
       style="font-style:normal;font-weight:normal;font-size:10.58333302px;line-height:1.25;font-family:sans-serif;letter-spacing:0px;word-spacing:0px;fill:#000000;fill-opacity:1;stroke:none;stroke-width:0.26458332"
       x="245.42821"
       y="203.21849"
       id="text890"><tspan
         sodipodi:role="line"
         id="tspan888"
         x="245.42821"
         y="212.87399"
         style="stroke-width:0.26458332" /></text>
    <flowRoot
       xml:space="preserve"
       id="flowRoot4581"
       style="fill:black;fill-opacity:1;stroke:none;font-family:sans-serif;font-style:normal;font-weight:normal;font-size:40px;line-height:1.25;letter-spacing:0px;word-spacing:0px"><flowRegion
         id="flowRegion4583"><rect
           id="rect4585"
           width="2062.5962"
           height="331.82535"
           x="935.1441"
           y="80.239799" /></flowRegion><flowPara
         id="flowPara4587" /></flowRoot>    <flowRoot
       xml:space="preserve"
       id="flowRoot4589"
       style="fill:black;fill-opacity:1;stroke:none;font-family:sans-serif;font-style:normal;font-weight:normal;font-size:40px;line-height:1.25;letter-spacing:0px;word-spacing:0px"><flowRegion
         id="flowRegion4591"><rect
           id="rect4593"
           width="2100.3035"
           height="267.72272"
           x="923.83191"
           y="91.552032" /></flowRegion><flowPara
         id="flowPara4595" /></flowRoot>    <flowRoot
       xml:space="preserve"
       id="flowRoot4597"
       style="font-style:normal;font-variant:normal;font-weight:normal;font-stretch:normal;font-size:133.38470459px;line-height:1.25;font-family:Cambria;-inkscape-font-specification:Cambria;letter-spacing:0px;word-spacing:0px;fill:#000000;fill-opacity:1;stroke:none"
       transform="matrix(0.26458333,0,0,0.26458333,0,177)"><flowRegion
         id="flowRegion4599"
         style="font-style:normal;font-variant:normal;font-weight:normal;font-stretch:normal;font-size:133.38470459px;font-family:Cambria;-inkscape-font-specification:Cambria"><rect
           id="rect4601"
           width="2156.8647"
           height="361.9913"
           x="916.29047"
           y="84.010544"
           style="font-style:normal;font-variant:normal;font-weight:normal;font-stretch:normal;font-size:133.38470459px;font-family:Cambria;-inkscape-font-specification:Cambria" /></flowRegion><flowPara
         id="flowPara4603"
         style="font-style:normal;font-variant:normal;font-weight:normal;font-stretch:normal;font-size:133.38470459px;font-family:Cambria;-inkscape-font-specification:Cambria">Computational Molecular Design </flowPara><flowPara
         style="font-style:normal;font-variant:normal;font-weight:normal;font-stretch:normal;font-size:133.38470459px;font-family:Cambria;-inkscape-font-specification:Cambria"
         id="flowPara917">              Metabolomics Lab</flowPara></flowRoot>    <text
       xml:space="preserve"
       style="font-style:normal;font-weight:normal;font-size:10.58333302px;line-height:1.25;font-family:sans-serif;letter-spacing:0px;word-spacing:0px;fill:#0088aa;fill-opacity:1;stroke:none;stroke-width:0.26458332;"
       x="319.2562"
       y="276.04883"
       id="text915"><tspan
         sodipodi:role="line"
         id="tspan913"
         x="319.2562"
         y="276.04883"
         style="font-style:normal;font-variant:normal;font-weight:normal;font-stretch:normal;font-size:35.27777863px;font-family:Cambria;-inkscape-font-specification:Cambria;fill:#0088aa;fill-opacity:1;stroke-width:0.26458332;">&amp;</tspan></text>
  </g>
</svg>
